<svg xmlns="http://www.w3.org/2000/svg" width="48" height="48"><path fill="#FAFAFD" d="M0 0h48v48H0V0Z"/><path fill="#5864E6" d="M6 9h5c2.579 6.055 3.61 11.44 4 18h2l.332-2.16C18.278 19.124 19.454 14.208 22 9h5a1370.82 1370.82 0 0 1 2 6.75l1.125 3.797C31 23 31 23 31 27h2l.375-2.313L34 21l.477-2.813.523-3 .5-2.894C36 10 36 10 37 9a99.984 99.984 0 0 1 5 0 350.925 350.925 0 0 1-7 30h-5c-.84-2.581-1.673-5.165-2.5-7.75l-.723-2.21-.683-2.15-.635-1.967C25 23 25 23 25 19h-2l-.25 3.25C22.047 28.082 19.972 33.496 18 39h-5a18218.018 18218.018 0 0 1-4.01-16.534L7.532 16.44l-.888-3.665C6 10 6 10 6 9Z"/></svg>